<svg width="40" height="40" viewBox="0 0 40 40" fill="none" xmlns="http://www.w3.org/2000/svg">
<path d="M35.0749 -3.8147e-06H4.92513C2.20505 -3.8147e-06 0 2.20505 0 4.92512V35.0749C0 37.7949 2.20505 40 4.92513 40H35.0749C37.7949 40 40 37.7949 40 35.0749V4.92512C40 2.20505 37.7949 -3.8147e-06 35.0749 -3.8147e-06Z" fill="white"/>
<path d="M20.7863 6.60775C12.7414 6.60775 6.19714 13.152 6.19714 21.1969C6.19714 26.8374 9.41636 31.7371 14.1129 34.1648C15.6177 34.787 17.2009 35.1616 18.7989 35.2844V29.5635C16.731 29.3095 14.7309 28.3951 13.1478 26.812C10.9614 24.6256 10.045 21.6456 10.3942 18.7904H14.9489C14.4896 20.5704 14.9553 22.543 16.3501 23.9378C18.4475 26.0352 21.8488 26.0352 23.9462 23.9378C26.0437 21.8403 26.0437 18.4391 23.9462 16.3416C22.5514 14.9468 20.581 14.4812 18.7989 14.9405V10.3857C21.654 10.0365 24.6341 10.953 26.8205 13.1393C28.4036 14.7225 29.3201 16.7247 29.5719 18.7904H35.1701C34.0187 11.8885 28.0078 6.60987 20.7842 6.60987H20.7863V6.60775Z" fill="#273075"/>
<path d="M20.6021 5.65321C12.2292 5.65321 5.41827 12.4641 5.41827 20.8371C5.41827 24.8796 7.00989 28.556 9.59627 31.28C9.75501 31.426 9.91798 31.5678 10.081 31.7054C7.4205 28.9962 5.77596 25.2839 5.77596 21.1969C5.77596 12.9192 12.5107 6.18445 20.7884 6.18445C27.0744 6.18445 32.4673 10.0683 34.7002 15.5627C34.5203 14.9638 34.3023 14.3754 34.0505 13.7976C31.5085 8.96132 26.4374 5.65532 20.6043 5.65532H20.6021V5.65321Z" fill="#273075"/>
<path d="M20.6021 5.2299C24.3441 5.2299 27.7814 6.55484 30.4736 8.75813C24.4521 3.11974 15.0019 3.23615 9.12641 9.11159C4.51452 13.7235 3.45415 20.5365 5.9347 26.1665C5.32726 24.5029 4.99709 22.7081 4.99709 20.835C4.99709 12.2292 11.9985 5.22779 20.6043 5.22779L20.6021 5.2299Z" fill="#273075"/>
<path d="M34.1055 26.1982C34.6748 26.1982 35.1363 25.7367 35.1363 25.1675C35.1363 24.5982 34.6748 24.1367 34.1055 24.1367C33.5362 24.1367 33.0748 24.5982 33.0748 25.1675C33.0748 25.7367 33.5362 26.1982 34.1055 26.1982Z" fill="#273075"/>
<path d="M35.1384 27.3221H33.1488V35.2823H35.1384V27.3221Z" fill="#273075"/>
<path d="M29.6693 27.3221V28.1877C28.9539 27.5528 28.0142 27.1655 26.9834 27.1655C24.742 27.1655 22.924 28.9835 22.924 31.2249C22.924 33.4663 24.742 35.2844 26.9834 35.2844C28.0142 35.2844 28.9539 34.8971 29.6693 34.2621V35.2844H31.6588V27.3242H29.6693V27.3221ZM27.0194 33.1531C25.9379 33.1531 25.0616 32.2768 25.0616 31.1953C25.0616 30.1138 25.9379 29.2375 27.0194 29.2375C28.1009 29.2375 28.9772 30.1138 28.9772 31.1953C28.9772 32.2768 28.1009 33.1531 27.0194 33.1531Z" fill="#273075"/>
</svg>
