<svg width="42" height="42" viewBox="0 0 42 42" fill="none" xmlns="http://www.w3.org/2000/svg">
<g clip-path="url(#clip0_2138_803)">
<path d="M40.25 7V17.5H29.75" stroke="white" stroke-width="4" stroke-linecap="round" stroke-linejoin="round"/>
<path d="M35.8573 26.25C34.7197 29.4699 32.5665 32.2328 29.7221 34.1224C26.8776 36.012 23.4961 36.926 20.087 36.7266C16.678 36.5271 13.4261 35.2251 10.8214 33.0167C8.21666 30.8083 6.40028 27.8132 5.64593 24.4826C4.89158 21.1521 5.24012 17.6666 6.63905 14.5514C8.03797 11.4362 10.4115 8.86004 13.4019 7.21114C16.3923 5.56225 19.8377 4.92995 23.2187 5.40953C26.5998 5.8891 29.7334 7.45457 32.1473 9.87002L40.2498 17.5" stroke="white" stroke-width="4" stroke-linecap="round" stroke-linejoin="round"/>
</g>
<defs>
<clipPath id="clip0_2138_803">
<rect width="42" height="42" fill="white"/>
</clipPath>
</defs>
</svg>
