<svg width="52" height="52" viewBox="0 0 52 52" fill="none" xmlns="http://www.w3.org/2000/svg">
<path d="M45.5973 0H6.40267C2.86657 0 0 2.86657 0 6.40267V45.5973C0 49.1334 2.86657 52 6.40267 52H45.5973C49.1334 52 52 49.1334 52 45.5973V6.40267C52 2.86657 49.1334 0 45.5973 0Z" fill="white"/>
<path d="M27.0225 8.59033C16.5642 8.59033 8.05664 17.0979 8.05664 27.5562C8.05664 34.8889 12.2416 41.2585 18.3471 44.4144C20.3034 45.2234 22.3615 45.7104 24.4389 45.87V38.4328C21.7507 38.1026 19.1506 36.9139 17.0925 34.8558C14.2502 32.0136 13.0588 28.1395 13.5128 24.4278H19.434C18.8369 26.7418 19.4422 29.3061 21.2554 31.1194C23.9821 33.8461 28.4037 33.8461 31.1305 31.1194C33.8572 28.3926 33.8572 23.971 31.1305 21.2443C29.3172 19.4311 26.7556 18.8258 24.4389 19.4229V13.5017C28.1506 13.0477 32.0247 14.2391 34.8669 17.0814C36.925 19.1395 38.1164 21.7423 38.4439 24.4278H45.7215C44.2247 15.4552 36.4105 8.59308 27.0198 8.59308H27.0225V8.59033Z" fill="#273075"/>
<path d="M26.783 7.34937C15.8982 7.34937 7.04395 16.2036 7.04395 27.0884C7.04395 32.3437 9.11305 37.123 12.4753 40.6641C12.6817 40.854 12.8936 41.0383 13.1054 41.2172C9.64683 37.6953 7.50894 32.8692 7.50894 27.5562C7.50894 16.7952 16.2641 8.03998 27.0251 8.03998C35.197 8.03998 42.2077 13.0889 45.1105 20.2317C44.8766 19.4531 44.5932 18.6882 44.2658 17.937C40.9613 11.6499 34.3688 7.35212 26.7857 7.35212H26.783V7.34937Z" fill="#273075"/>
<path d="M26.7828 6.79889C31.6474 6.79889 36.1158 8.52131 39.6157 11.3856C31.7878 4.05567 19.5025 4.207 11.8644 11.8451C5.86894 17.8405 4.49045 26.6975 7.71517 34.0164C6.9255 31.8538 6.49627 29.5205 6.49627 27.0855C6.49627 15.898 15.5981 6.79614 26.7856 6.79614L26.7828 6.79889Z" fill="#273075"/>
<path d="M44.337 34.0576C45.0771 34.0576 45.677 33.4577 45.677 32.7177C45.677 31.9776 45.0771 31.3777 44.337 31.3777C43.597 31.3777 42.9971 31.9776 42.9971 32.7177C42.9971 33.4577 43.597 34.0576 44.337 34.0576Z" fill="#273075"/>
<path d="M45.6801 35.519H43.0938V45.8673H45.6801V35.519Z" fill="#273075"/>
<path d="M38.5697 35.5188V36.6441C37.6397 35.8187 36.4181 35.3152 35.0781 35.3152C32.1643 35.3152 29.8008 37.6787 29.8008 40.5925C29.8008 43.5063 32.1643 45.8698 35.0781 45.8698C36.4181 45.8698 37.6397 45.3663 38.5697 44.5409V45.8698H41.1561V35.5215H38.5697V35.5188ZM35.1249 43.0991C33.7189 43.0991 32.5798 41.96 32.5798 40.554C32.5798 39.148 33.7189 38.0089 35.1249 38.0089C36.5309 38.0089 37.67 39.148 37.67 40.554C37.67 41.96 36.5309 43.0991 35.1249 43.0991Z" fill="#273075"/>
</svg>
